HIERARCHY
ROOT Hips
{
	OFFSET 0.00 0.00 0.00
	CHANNELS 6 Xposition Yposition Zposition Xrotation Yrotation Zrotation
	JOINT LeftUpLeg
	{
		OFFSET 3.28590 0.00000 0.00000
		CHANNELS 3 Xrotation Yrotation Zrotation
		JOINT LeftLeg
		{
			OFFSET 0.00000 -16.12946 0.00000
			CHANNELS 3 Xrotation Yrotation Zrotation
			JOINT LeftFoot
			{
				OFFSET 0.00000 -15.45666 0.00000
				CHANNELS 3 Xrotation Yrotation Zrotation
				JOINT LeftToeBase
				{
					OFFSET 0.00000 -1.41942 5.29737
					CHANNELS 3 Xrotation Yrotation Zrotation
					End Site
					{
						OFFSET 0.00000 0.00000 2.95275
					}
				}
			}
		}
	}
	JOINT RightUpLeg
	{
		OFFSET -3.28590 0.00000 0.00000
		CHANNELS 3 Xrotation Yrotation Zrotation
		JOINT RightLeg
		{
			OFFSET 0.00000 -16.12946 0.00000
			CHANNELS 3 Xrotation Yrotation Zrotation
			JOINT RightFoot
			{
				OFFSET 0.00000 -15.45666 0.00000
				CHANNELS 3 Xrotation Yrotation Zrotation
				JOINT RightToeBase
				{
					OFFSET 0.00000 -1.41942 5.29737
					CHANNELS 3 Xrotation Yrotation Zrotation
					End Site
					{
						OFFSET 0.00000 0.00000 2.95275
					}
				}
			}
		}
	}
	JOINT Spine
	{
		OFFSET 0.00000 0.03937 0.00000
		CHANNELS 3 Xrotation Yrotation Zrotation
		JOINT Spine1
		{
			OFFSET 0.00000 6.25455 0.00000
			CHANNELS 3 Xrotation Yrotation Zrotation
			JOINT Neck
			{
				OFFSET 0.00000 11.77789 0.00000
				CHANNELS 3 Xrotation Yrotation Zrotation
				JOINT Head
				{
					OFFSET 0.00000 7.25432 0.00000
					CHANNELS 3 Xrotation Yrotation Zrotation
					End Site
					{
						OFFSET 0.00000 4.52755 0.00000
					}
				}
			}
			JOINT LeftShoulder
			{
				OFFSET 0.00000 11.77789 0.00000
				CHANNELS 3 Xrotation Yrotation Zrotation
				JOINT LeftArm
				{
					OFFSET 8.12235 -0.00003 0.00000
					CHANNELS 3 Xrotation Yrotation Zrotation
					JOINT LeftForeArm
					{
						OFFSET 10.26986 -0.00004 0.00000
						CHANNELS 3 Xrotation Yrotation Zrotation
						JOINT LeftHand
						{
							OFFSET 10.02459 -0.00004 0.00000
							CHANNELS 3 Xrotation Yrotation Zrotation
							JOINT LeftHandThumb
							{
								OFFSET 0.00000 0.00000 0.00000
								CHANNELS 3 Xrotation Yrotation Zrotation
								End Site
								{
									OFFSET 0.00000 0.00000 3.93700
								}
							}
							JOINT L_Wrist_End
							{
								OFFSET 3.93700 -0.00001 0.00000
								CHANNELS 3 Xrotation Yrotation Zrotation
							}
						}
					}
				}
			}
			JOINT RightShoulder
			{
				OFFSET 0.00000 11.77789 0.00000
				CHANNELS 3 Xrotation Yrotation Zrotation
				JOINT RightArm
				{
					OFFSET -8.12235 -0.00003 0.00000
					CHANNELS 3 Xrotation Yrotation Zrotation
					JOINT RightForeArm
					{
						OFFSET -10.26986 -0.00004 0.00000
						CHANNELS 3 Xrotation Yrotation Zrotation
						JOINT RightHand
						{
							OFFSET -10.02459 -0.00004 0.00000
							CHANNELS 3 Xrotation Yrotation Zrotation
							JOINT RightHandThumb
							{
								OFFSET 0.00000 0.00000 0.00000
								CHANNELS 3 Xrotation Yrotation Zrotation
								End Site
								{
									OFFSET 0.00000 0.00000 3.93700
								}
							}
							JOINT R_Wrist_End
							{
								OFFSET -5.39369 -0.00002 0.00000
								CHANNELS 3 Xrotation Yrotation Zrotation
							}
						}
					}
				}
			}
		}
	}
}
MOTION
Frames: 19
Frame Time: 0.066664
 -1.1080 31.3776 -10.9672 179.8564 1.5105 178.6779 -28.1046 3.5481 11.6647 70.7153 -0.0000 0.0000 -29.6194 8.2491 -45.6103 9.3040 0.0000 -0.0000 -7.9147 2.4054 4.2965 39.7849 -0.0000 0.0000 -29.5837 -10.1551 4.2837 -6.4627 0.0000 -0.0000 0.6669 0.8549 1.6806 3.2186 2.0860 0.8456 0.3175 -4.9344 0.1283 -28.8179 -4.3051 -1.4198 -25.2308 3.6830 15.2362 25.5036 -45.0892 -85.2201 -179.9984 -82.6664 -179.9981 -34.9485 -6.1860 -4.6409 -0.0000 0.0000 -0.0000 -0.0000 0.0000 -0.0000 -4.1273 -8.1136 -9.0374 8.2664 47.0110 75.7874 -179.9949 87.6512 179.9947 -23.6390 17.1919 1.8061 -0.0000 0.0000 -0.0000 -0.0000 0.0000 -0.0000
 -1.2464 31.9228 -10.9829 -179.6071 0.5536 178.3055 -23.0267 2.7462 10.0994 63.2971 -0.0000 0.0000 -30.1612 8.3687 -44.6845 8.1234 0.0000 -0.0000 -6.4695 2.2706 4.2375 37.4848 -0.0000 0.0000 -24.8571 -10.4712 5.5882 -8.3611 0.0000 0.0000 0.4039 0.1957 1.1135 3.4229 1.4828 1.7473 0.6514 -4.1733 0.5417 -28.4401 -3.9993 -0.7788 -23.2969 3.3870 15.5447 26.7541 -43.7443 -85.6382 -179.9984 -82.4522 -179.9982 -35.1474 -6.5751 -3.6867 -0.0000 0.0000 -0.0000 -0.0000 0.0000 -0.0000 -4.0634 -9.3312 -9.2679 9.1470 46.6123 75.9823 -179.9957 87.1725 179.9955 -19.8749 16.5352 1.7538 -0.0000 0.0000 -0.0000 -0.0000 0.0000 -0.0000
 -1.6526 33.6561 -11.1685 -179.4942 1.3092 177.9654 -14.1944 4.5042 7.8627 47.2059 -0.0000 0.0000 -27.4601 7.8696 -44.4340 6.8923 -0.0000 -0.0000 -3.6258 0.9706 2.4148 30.3758 -0.0000 0.0000 -9.3425 -6.1586 11.1705 -14.8906 0.0000 0.0000 0.5940 0.5915 1.0517 1.9889 1.8865 2.1001 0.4026 -3.6427 0.1551 -26.0489 -3.8821 -0.2947 -22.2214 4.2529 16.3032 29.1805 -45.3697 -84.4078 -179.9987 -80.7599 -179.9985 -35.6257 -5.6126 -5.2477 -0.0000 0.0000 -0.0000 -0.0000 0.0000 -0.0000 -2.2840 -10.5284 -10.1707 10.8658 45.1583 78.8268 -179.9974 85.3443 179.9972 -22.5746 17.4779 0.5122 -0.0000 0.0000 -0.0000 -0.0000 0.0000 -0.0000
 -2.3011 35.0561 -11.1077 -179.3634 2.6277 178.5566 -6.1103 3.5694 4.2509 32.9856 -0.0000 0.0000 -22.1744 9.5321 -41.5599 6.2935 -0.0000 0.0000 -6.1240 -6.3223 -2.8161 31.3560 -0.0000 0.0000 4.6386 6.7371 16.8421 -20.4620 0.0000 0.0000 0.5291 0.4620 0.4776 2.2785 1.7393 1.9295 -0.9826 -2.6954 0.6453 -23.8366 -2.1197 -0.8874 -20.5974 4.8973 17.4800 28.6083 -44.9266 -85.9146 -179.9988 -80.1166 -179.9986 -34.1578 -5.7458 -5.0189 -0.0000 0.0000 -0.0000 -0.0000 0.0000 -0.0000 -1.7145 -10.8426 -10.7924 11.5938 45.3666 79.9124 -179.9976 84.9023 179.9974 -21.3390 17.8307 0.3315 -0.0000 0.0000 -0.0000 -0.0000 0.0000 -0.0000
 -2.8461 34.8899 -10.7079 -179.5172 3.3304 178.4246 -2.6708 0.9300 3.3444 27.4667 -0.0000 0.0000 -13.6964 10.9907 -42.0048 -0.4813 0.0000 -0.0000 -13.5000 -8.1994 -8.0651 41.5199 -0.0000 0.0000 3.1123 15.8660 26.4005 -15.9289 0.0000 0.0000 0.9810 0.1589 0.0987 2.7781 1.4132 1.7440 -2.2848 -1.9265 1.2000 -22.6852 -1.8058 -0.7685 -20.5146 3.9883 18.4373 28.2921 -43.8676 -85.6699 -179.9989 -78.9019 -179.9987 -36.2155 -6.2668 -5.1460 -0.0000 0.0000 -0.0000 -0.0000 0.0000 -0.0000 -1.9361 -10.9774 -10.6929 11.3986 45.5733 80.0297 -179.9976 84.9780 179.9974 -22.7634 17.9809 0.5687 -0.0000 0.0000 -0.0000 -0.0000 0.0000 -0.0000
 -3.3521 33.1150 -10.0185 179.2758 3.4877 178.2265 -5.0713 2.2464 3.5367 30.3638 -0.0000 0.0000 -29.4548 7.9890 -38.3185 5.5429 0.0000 0.0000 -23.8476 -6.5421 -12.6284 58.1434 -0.0000 0.0000 -6.5934 11.1724 25.5044 -15.7820 0.0000 -0.0000 2.0633 -0.0418 -0.1973 1.9951 1.2019 1.6573 -2.6346 -1.4725 1.8432 -23.5928 -2.0918 -1.1305 -22.6970 3.6321 17.4078 29.6441 -43.5263 -81.0387 -179.9991 -77.3084 -179.9988 -37.6188 -7.5945 -5.2211 -0.0000 0.0000 -0.0000 -0.0000 0.0000 -0.0000 -2.4491 -10.3583 -9.9070 11.1714 44.0535 79.8067 -179.9972 85.7199 179.9970 -23.5650 18.0026 0.8001 -0.0000 0.0000 -0.0000 -0.0000 0.0000 -0.0000
 -3.7079 31.3999 -9.2014 177.1363 1.9528 179.5920 -12.1571 3.4934 1.5301 38.7158 -0.0000 0.0000 -42.5612 7.6952 -33.1596 9.5046 -0.0000 -0.0000 -32.2709 -3.3805 -16.8463 69.6914 -0.0000 0.0000 -11.4230 4.6242 21.6028 -14.2050 0.0000 0.0000 2.7834 -0.7254 -1.3242 1.1038 0.4887 1.1214 -3.3674 -1.3074 1.5885 -24.3230 -3.1391 -0.5649 -25.3468 3.4142 15.6583 29.3751 -42.7728 -78.1437 -179.9989 -78.8436 -179.9987 -39.4050 -8.5054 -4.7089 -0.0000 0.0000 -0.0000 -0.0000 0.0000 -0.0000 -3.3121 -10.6283 -8.7769 10.5618 43.6761 78.3954 -179.9954 87.3772 179.9952 -22.3274 16.7088 1.5833 -0.0000 0.0000 -0.0000 -0.0000 0.0000 -0.0000
 -3.5707 31.6819 -9.0203 177.1150 2.8943 179.1783 -12.6422 4.7582 2.6844 38.6565 -0.0000 0.0000 -39.8932 7.2491 -34.3509 8.7095 -0.0000 0.0000 -30.4129 0.0283 -13.6030 66.9048 -0.0000 0.0000 -10.5445 -0.1921 17.8436 -13.2910 0.0000 0.0000 1.7231 -0.2821 -0.9516 3.2755 0.9373 0.8043 -3.2965 -1.0621 1.2192 -26.2188 -2.9170 -0.3522 -24.9876 3.6311 15.2413 28.1192 -40.6152 -80.1841 -179.9988 -79.9026 -179.9986 -37.0444 -8.1599 -3.6950 -0.0000 0.0000 -0.0000 -0.0000 0.0000 -0.0000 -3.1594 -9.7059 -8.2741 9.2308 44.0042 79.6331 -179.9866 89.1015 179.9864 -19.9321 15.8918 1.5677 -0.0000 0.0000 -0.0000 -0.0000 0.0000 -0.0000
 -3.0348 33.5450 -9.2258 176.9661 2.3570 178.5523 -7.6801 2.2849 3.4828 27.1548 -0.0000 0.0000 -24.7324 9.0158 -37.3552 4.5888 0.0000 -0.0000 -22.7397 0.0692 -9.1489 52.8919 -0.0000 0.0000 -6.1825 -0.1974 17.4542 -13.2172 0.0000 -0.0000 1.7005 -0.3901 -0.9036 2.2585 0.8647 1.3731 -3.5736 -1.3986 1.2786 -24.8049 -2.5156 -0.8457 -22.9829 4.3630 15.9433 28.7707 -41.0378 -83.0194 -179.9988 -79.6728 -179.9986 -38.6256 -8.1480 -4.5445 -0.0000 0.0000 -0.0000 -0.0000 0.0000 -0.0000 -3.1469 -10.2719 -8.2894 9.1235 47.1406 80.6188 -0.0191 89.3675 0.0189 -21.9584 16.1009 2.7187 -0.0000 0.0000 -0.0000 -0.0000 0.0000 -0.0000
 -2.2142 35.3996 -9.3106 176.6540 -1.0060 177.4985 -10.1879 4.7354 7.1692 26.0737 -0.0000 0.0000 -6.2552 3.4356 -45.6786 0.9991 0.0000 -0.0000 -13.6205 0.9253 -3.7095 35.9897 -0.0000 0.0000 0.5034 1.3204 16.6490 -12.8714 0.0000 0.0000 1.5469 -0.4524 -0.3224 1.4093 0.8313 1.7966 -3.9907 -2.8176 0.4215 -22.9039 -4.2218 -0.0816 -21.7051 3.9222 16.0941 29.0404 -43.7655 -83.5971 -179.9989 -79.5567 -179.9986 -37.7112 -7.2042 -5.5986 -0.0000 0.0000 -0.0000 -0.0000 0.0000 -0.0000 -2.9005 -10.6970 -9.0708 7.7341 47.4826 84.3636 -0.0041 87.0622 0.0039 -22.4792 15.9687 2.8114 -0.0000 0.0000 -0.0000 -0.0000 0.0000 -0.0000
 -1.4755 35.7265 -9.3191 177.1009 -5.1534 177.2222 -18.1879 2.5237 9.8390 39.8707 -0.0000 0.0000 -5.8061 2.2017 -53.3446 8.7622 -0.0000 -0.0000 -6.2769 -0.3722 -0.0233 25.1603 -0.0000 0.0000 7.4765 -1.1779 16.3373 -17.0296 0.0000 -0.0000 1.5030 -0.1099 0.2782 1.2555 1.1870 1.7816 -3.5561 -5.2859 -0.5024 -21.4824 -5.5391 -0.2741 -21.7368 3.5067 15.8857 28.3655 -46.7458 -83.3426 -179.9989 -79.2627 -179.9987 -37.4187 -6.4245 -6.5058 -0.0000 0.0000 -0.0000 -0.0000 0.0000 -0.0000 -2.7152 -10.7958 -9.9797 7.3979 46.3201 86.1192 -0.0039 86.8961 0.0037 -21.9593 16.0385 2.3497 -0.0000 0.0000 -0.0000 -0.0000 0.0000 -0.0000
 -0.8798 34.2735 -9.1776 178.0311 -8.5502 178.8985 -27.6853 -0.8516 9.2265 61.0281 -0.0000 0.0000 -17.1343 4.4927 -50.5561 9.0026 0.0000 -0.0000 -2.2855 -5.6912 0.4346 22.9851 -0.0000 0.0000 -5.2865 -5.6979 11.7863 -15.9171 0.0000 0.0000 2.0197 0.3287 -0.0757 1.4542 1.6031 0.9610 -2.4556 -7.5134 -1.1896 -21.7215 -6.4679 -0.7120 -22.6411 3.8967 15.0213 27.7030 -47.6390 -82.8149 -179.9990 -78.5271 -179.9987 -38.3040 -6.6793 -6.6931 -0.0000 0.0000 -0.0000 -0.0000 0.0000 -0.0000 -3.1333 -10.9874 -9.3474 8.6524 45.8641 83.1655 -0.0062 88.0478 0.0060 -21.2249 16.7756 1.9483 -0.0000 0.0000 -0.0000 -0.0000 0.0000 -0.0000
 -0.3445 32.3119 -8.6222 177.0667 -7.4506 177.6635 -38.0898 -2.2458 11.7484 78.3580 -0.0000 0.0000 -23.7038 6.2371 -46.3135 9.0656 -0.0000 -0.0000 -7.4955 -4.8588 2.8759 31.6329 -0.0000 0.0000 -22.4492 -8.1875 7.1284 -7.6134 0.0000 0.0000 2.8963 1.6214 0.6172 0.4374 3.0469 1.9914 -3.0441 -8.9411 -2.0530 -22.1070 -5.3819 -0.9064 -25.2526 6.1889 14.0583 28.2879 -46.6317 -82.6047 -179.9989 -79.6188 -179.9986 -38.0371 -7.5062 -6.3453 -0.0000 0.0000 -0.0000 -0.0000 0.0000 -0.0000 -3.6934 -9.4455 -7.8384 9.3240 45.4858 77.8412 -0.0037 86.7778 0.0035 -21.7669 17.3599 1.1498 -0.0000 0.0000 -0.0000 -0.0000 0.0000 -0.0000
 -0.0150 32.1003 -8.7639 177.8771 -6.9756 176.7103 -37.5828 -3.3923 12.2692 79.0072 -0.0000 0.0000 -24.8471 4.7693 -45.9676 8.6073 -0.0000 0.0000 -6.0550 -2.1622 5.3383 30.5691 -0.0000 0.0000 -23.9506 -10.5541 5.8805 -6.6277 0.0000 0.0000 2.1891 1.8232 0.7472 1.6261 3.3961 2.5985 -2.4481 -9.2237 -1.9544 -23.4870 -4.7861 -0.0567 -23.8912 7.2473 14.1356 29.3414 -43.7989 -83.4711 -179.9986 -81.1531 -179.9984 -36.9424 -7.2062 -5.0538 -0.0000 0.0000 -0.0000 -0.0000 0.0000 -0.0000 -3.4283 -8.9270 -7.4992 9.2788 45.2993 75.5864 -0.0021 84.3348 0.0019 -16.9138 15.8893 0.6772 -0.0000 0.0000 -0.0000 -0.0000 0.0000 -0.0000
 -0.1285 33.7575 -9.4011 178.9795 -5.9140 177.2327 -28.0115 -1.4245 9.7879 63.8650 -0.0000 0.0000 -22.2471 3.6705 -46.4671 7.8856 0.0000 0.0000 -0.3850 -1.9278 4.1038 21.6335 -0.0000 0.0000 -8.4873 -7.6820 10.7919 -13.4168 0.0000 0.0000 1.8369 2.0385 1.2846 0.9168 3.6779 0.7156 -2.4734 -8.7133 -2.2605 -20.4315 -5.0551 1.7912 -21.2074 7.6793 15.2708 32.7057 -43.8552 -81.8226 -179.9988 -80.1121 -179.9986 -38.7619 -6.6774 -6.6415 -0.0000 0.0000 -0.0000 -0.0000 0.0000 -0.0000 -2.3412 -9.8936 -9.0326 11.1385 43.6481 78.2952 -0.0026 85.4146 0.0024 -21.7374 17.0268 1.1262 -0.0000 0.0000 -0.0000 -0.0000 0.0000 -0.0000
 -0.5284 35.5447 -10.0201 -179.6411 -2.6929 178.2842 -14.8048 0.0941 5.4134 41.9574 -0.0000 0.0000 -16.7824 3.1142 -48.1784 6.3165 -0.0000 0.0000 -0.8029 -6.4390 -0.2663 22.8284 -0.0000 0.0000 8.5768 3.8818 17.4425 -20.6090 0.0000 -0.0000 0.6264 1.8290 2.1101 1.4082 3.4618 -1.8025 -2.1989 -6.5899 -1.9138 -17.1606 -3.4293 2.0227 -18.8847 8.3984 16.7351 34.2874 -43.5669 -81.7482 -179.9988 -80.0926 -179.9986 -35.9581 -6.3443 -6.1401 -0.0000 0.0000 -0.0000 -0.0000 0.0000 -0.0000 -1.7425 -10.2603 -10.4100 12.0379 43.9339 80.0765 -0.0031 86.1495 0.0029 -21.4039 17.3811 1.4037 -0.0000 0.0000 -0.0000 -0.0000 0.0000 -0.0000
 -0.8938 35.9277 -10.3217 -178.5748 0.0515 178.5925 -6.1275 -1.5010 1.5719 29.0741 -0.0000 0.0000 -10.8541 3.8159 -50.1227 6.0197 0.0000 -0.0000 -9.4094 -6.9464 -5.0705 38.1329 -0.0000 0.0000 12.1599 13.0406 24.4611 -13.5336 0.0000 0.0000 0.4740 1.1440 2.3126 1.0457 2.7185 -2.6875 -2.1250 -4.2211 -1.2649 -14.5576 -2.0046 1.5567 -18.5428 8.3556 17.1675 34.8851 -43.4834 -81.8046 -179.9988 -80.3550 -179.9985 -34.8032 -6.0557 -5.8720 -0.0000 0.0000 -0.0000 -0.0000 0.0000 -0.0000 -1.6095 -11.2030 -11.0161 12.1346 43.4178 80.2653 -0.0039 86.9273 0.0037 -22.4008 17.0609 1.9155 -0.0000 0.0000 -0.0000 -0.0000 0.0000 -0.0000
 -1.0375 34.5151 -10.3049 -176.9434 3.3693 176.9851 -1.2367 1.1434 1.3636 26.6818 -0.0000 0.0000 -17.5357 4.4740 -39.9630 2.3885 -0.0000 -0.0000 -21.7823 -3.4748 -6.4691 62.2400 -0.0000 0.0000 3.8404 15.7462 24.8450 -12.0327 0.0000 0.0000 0.9892 0.7661 2.2844 1.9304 2.2892 -1.8352 -1.7578 -1.7765 0.2494 -15.5266 -1.1332 1.1577 -19.8194 7.5630 16.8724 33.1485 -43.3622 -82.5161 -179.9985 -81.8222 -179.9983 -34.9337 -6.4858 -5.7035 -0.0000 0.0000 -0.0000 -0.0000 0.0000 -0.0000 -1.7545 -10.6838 -9.8630 11.5982 39.8210 79.4071 -0.0040 87.0041 0.0038 -22.1926 17.2129 1.2204 -0.0000 0.0000 -0.0000 -0.0000 0.0000 -0.0000
 -1.1236 32.4403 -9.8848 -177.3163 1.4603 177.6533 -4.5273 2.8210 0.6001 33.3832 -0.0000 0.0000 -35.7089 3.4346 -34.8479 10.4462 -0.0000 -0.0000 -34.4536 -3.7782 -10.7015 81.5196 -0.0000 0.0000 -1.3722 12.0483 23.8866 -12.2942 0.0000 0.0000 3.4294 -1.4910 0.2231 -0.7300 -0.1739 -0.9299 -0.9157 1.3934 1.4585 -17.7438 -2.5021 0.6787 -22.8967 5.7505 14.5171 32.5574 -43.8358 -80.9088 -179.9980 -83.8821 -179.9978 -38.6102 -8.3045 -5.0855 -0.0000 0.0000 -0.0000 -0.0000 0.0000 -0.0000 -3.6042 -11.9536 -8.4229 11.4539 38.3261 77.1269 -0.0022 84.6156 0.0020 -21.7841 16.9959 0.5474 -0.0000 0.0000 -0.0000 -0.0000 0.0000 -0.0000
